# xmcd
#
# Track frame offsets: 
#        150
#        23159
#        40691
#        54616
#        70680
#        91465
#        110030
#        129119
#        148037
#        166088
#
# Disc length: 2426 seconds
#
# Revision: 0
# Processed by: cddbd v1.5.2PL0 Copyright (c) Steve Scherf et al.
# Submitted via: ExactAudioCopyFreeDBPlugin 1.0
#
DISCID=7f09780a
DTITLE=ด้ามขวาน - ไก่เถื่อน
DYEAR=1995
DGENRE=Country
TTITLE0=ไก่เถื่อน
TTITLE1=อิไซกูนิ
TTITLE2=ลุงนัน
TTITLE3=แมวดำ-แมวลาย
TTITLE4=สงกะสัย
TTITLE5=ทะเล
TTITLE6=แล้ววันหนึ่ง
TTITLE7=ลูก
TTITLE8=กว้างแต่แคบ
TTITLE9=กำลาดำ
EXTD=
EXTT0=
EXTT1=
EXTT2=
EXTT3=
EXTT4=
EXTT5=
EXTT6=
EXTT7=
EXTT8=
EXTT9=
PLAYORDER=
